<svg width="32" height="32" viewBox="0 0 32 32" fill="none" xmlns="http://www.w3.org/2000/svg">
<g clip-path="url(#clip0_32_1909)">
<path fill-rule="evenodd" clip-rule="evenodd" d="M8.38913 18.7535C8.64929 18.4921 9.09559 18.6764 9.09561 19.0452V31.6265C9.09561 31.8548 8.91051 32.0399 8.68217 32.0399H0.413437C0.185102 32.0399 -1.99617e-08 31.8548 0 31.6265V27.3536C1.32886e-05 27.2443 0.0433078 27.1395 0.120397 27.062L8.38913 18.7535ZM0.496124 27.3879V31.5438H8.59948V19.2455L0.496124 27.3879Z" fill="#F2EDE4"/>
<path fill-rule="evenodd" clip-rule="evenodd" d="M20.6718 22.7789C20.9002 22.7789 21.0853 22.964 21.0853 23.1924V31.6265C21.0853 31.8548 20.9002 32.0399 20.6718 32.0399H11.3282C11.0998 32.0399 10.9147 31.8548 10.9147 31.6265V23.1924C10.9147 22.964 11.0998 22.7789 11.3282 22.7789H20.6718ZM11.4109 31.5438H20.5891V23.275H11.4109V31.5438Z" fill="#F2EDE4"/>
<path fill-rule="evenodd" clip-rule="evenodd" d="M31.4188 6.88261C31.6886 6.76181 32 6.95864 32 7.26059V31.6265C32 31.8548 31.8149 32.0399 31.5866 32.0399H23.8143C23.5856 32.0399 23.4004 31.8543 23.4008 31.6257L23.4408 11.3613L23.4419 11.3329C23.4519 11.1914 23.534 11.064 23.6605 10.9969L31.3928 6.89536L31.4188 6.88261ZM23.9368 11.4119L23.8971 31.5438H31.5039V7.39795L23.9368 11.4119Z" fill="#F2EDE4"/>
<path fill-rule="evenodd" clip-rule="evenodd" d="M4.97755 0.0393405C5.08723 0.0402885 5.19203 0.084808 5.2689 0.163049L14.3263 9.38293C14.4847 9.54411 14.4843 9.80256 14.3255 9.96328L0.707526 23.7419C0.447785 24.0047 0 23.8207 0 23.4512V0.413452C8.48546e-06 0.183735 0.187281 -0.00195864 0.41699 1.55975e-05L4.97755 0.0393405ZM0.496124 23.25L13.9154 9.67242L4.93903 0.535142L0.496124 0.496786V23.25Z" fill="#F2EDE4"/>
<path d="M20.9199 11.5334C21.0112 11.5334 21.0853 11.6075 21.0853 11.6988V20.2983C21.0853 20.3896 21.0112 20.4637 20.9199 20.4637H11.0801C10.9888 20.4637 10.9147 20.3896 10.9147 20.2983V16.7544C10.9147 16.7115 10.9314 16.6702 10.9612 16.6394L15.8496 11.5839C15.8807 11.5517 15.9236 11.5334 15.9684 11.5334H20.9199Z" fill="#F2EDE4"/>
<path fill-rule="evenodd" clip-rule="evenodd" d="M31.5866 0.0399058C31.8149 0.0399058 32 0.225015 32 0.453342V3.86791C32 4.02116 31.9152 4.16186 31.7797 4.23346L22.4364 9.17032C22.3769 9.20176 22.3105 9.2182 22.2432 9.2182H17.5157C17.4058 9.21819 17.3003 9.17438 17.2227 9.09643L8.9111 0.745009C8.65163 0.484276 8.8363 0.0399218 9.20413 0.0399058H31.5866ZM17.5501 8.72208H22.2228L31.5039 3.81801V0.53603H9.40302L17.5501 8.72208Z" fill="#F2EDE4"/>
</g>
<defs>
<clipPath id="clip0_32_1909">
<rect width="32" height="32" fill="white"/>
</clipPath>
</defs>
</svg>
