<svg width="32" height="32" viewBox="0 0 32 32" fill="none" xmlns="http://www.w3.org/2000/svg">
<g clip-path="url(#clip0_32_1921)">
<path d="M20.7451 23.1377C20.8379 23.1377 20.9131 23.2129 20.9131 23.3057V31.8731C20.9128 31.9656 20.8377 32.041 20.7451 32.041H11.2549C11.1623 32.041 11.0872 31.9656 11.0869 31.8731V23.3057C11.0869 23.2129 11.1621 23.1377 11.2549 23.1377H20.7451Z" fill="#F2EDE4"/>
<path d="M31.7539 6.97461C31.8657 6.91559 32 6.99652 32 7.12305V31.8731C31.9997 31.9656 31.9246 32.041 31.832 32.041H23.9375C23.8446 32.041 23.7693 31.965 23.7695 31.8721L23.8105 11.2891C23.8107 11.227 23.8446 11.1697 23.8994 11.1406L31.7539 6.97461Z" fill="#F2EDE4"/>
<path d="M8.44824 18.9746C8.5539 18.8688 8.7341 18.9433 8.73438 19.0928L8.73535 31.8721C8.73535 31.9648 8.65918 32.04 8.56641 32.04H0.167969C0.0751966 32.04 -8.11041e-09 31.9648 0 31.8721V27.5322C5.68349e-05 27.4879 0.0175994 27.4455 0.0488281 27.4141L8.44824 18.9746Z" fill="#F2EDE4"/>
<path d="M4.80176 0.040042C4.84618 0.0404249 4.88872 0.0582424 4.91992 0.0898466L14.1201 9.45508C14.1845 9.52057 14.1847 9.62611 14.1201 9.69141L0.287109 23.6865C0.181565 23.7932 0 23.7185 0 23.5684V0.167972C5.48861e-06 0.0747987 0.075834 -0.000538495 0.168945 2.89978e-06L4.80176 0.040042Z" fill="#F2EDE4"/>
<path d="M20.9971 11.4629C21.0898 11.4629 21.1649 11.5382 21.165 11.6309V20.3662C21.1649 20.4589 21.0898 20.5342 20.9971 20.5342H11.0029C10.9102 20.5342 10.8351 20.4589 10.835 20.3662V16.7666C10.835 16.723 10.8515 16.6807 10.8818 16.6494L15.8467 11.5147C15.8783 11.4819 15.9222 11.4629 15.9678 11.4629H20.9971Z" fill="#F2EDE4"/>
<path d="M31.832 0.0410185C31.9248 0.041055 32 0.116238 32 0.208987V3.67676C32 3.73903 31.9652 3.79611 31.9102 3.8252L22.4199 8.83985C22.3958 8.85258 22.369 8.85933 22.3418 8.85938H17.54C17.4954 8.85938 17.4524 8.84124 17.4209 8.80957L8.97754 0.327151C8.87239 0.221279 8.94752 0.0412984 9.09668 0.0410185H31.832Z" fill="#F2EDE4"/>
</g>
<defs>
<clipPath id="clip0_32_1921">
<rect width="32" height="32" fill="white"/>
</clipPath>
</defs>
</svg>
